<svg width="150" height="150" viewBox="0 0 150 150" fill="none" xmlns="http://www.w3.org/2000/svg">
<path d="M101.144 90.136C110.511 85.8333 110.861 85.5996 111.524 83.6136C111.855 82.6205 111.874 81.2574 111.758 56.3922L111.756 56.0402C111.621 30.5698 111.619 30.2184 111.212 29.3268C110.355 27.3796 108.953 26.5034 106.752 26.4839H105.292L101.826 39.413C101.845 39.4714 101.903 48.3894 101.942 59.2156L102.04 78.9208L92.3065 83.2238L91.834 94.4243L101.144 90.136Z" fill="url(#paint0_linear_35_730)"/>
<path d="M50.9599 143.698C50.9599 143.698 39.2357 149.711 38.2121 149.949C37.1885 150.186 40.5478 137.412 40.5478 137.412L48.7915 133.267L57.0149 129.103L57.0762 119.877C57.0966 114.794 57.0558 110.651 56.974 110.651L67.3451 105.385V119.489V132.463C67.3451 133.217 67.1477 133.959 66.7723 134.614C66.4655 135.166 65.8927 135.88 65.504 136.187C65.1154 136.493 58.5695 139.86 50.9599 143.698Z" fill="url(#paint1_linear_35_730)"/>
<path d="M57.2062 91.9813C57.2256 87.1519 57.1867 83.1993 57.1283 83.1993L67.0797 78.0977L67.0212 86.8798C67.0018 91.7083 67.0407 95.6609 67.0991 95.6609C67.177 95.6609 70.7214 93.8886 74.9862 91.7279L83.2212 87.4425V98.7093L74.8304 102.807L66.9823 106.799L57.1088 111.822C57.0114 111.841 53.4671 113.614 49.2217 115.775L41.471 119.708V128.529V137.35C41.471 137.35 38.4491 149.874 38.2128 149.953C37.9766 150.033 36.6218 149.987 36.6218 149.987C34.3823 149.987 33.175 149.304 32.2012 147.455C31.8507 146.813 31.8312 145.957 31.7728 131.235C31.7339 115.854 31.7339 115.698 32.1233 114.763C32.357 114.237 32.8243 113.555 33.175 113.205C33.5644 112.835 38.2773 110.323 45.4826 106.682L57.1477 100.782L57.2062 91.9813Z" fill="url(#paint2_linear_35_730)"/>
<path d="M82.7493 109.636L82.6521 98.7125L82.7493 78.9482C82.7493 72.0941 82.691 70.2249 82.5161 70.2249L92.1467 59.8789C92.5549 60.6382 92.3702 60.9951 92.4674 71.8994V93.8634V102.587C92.4674 107.378 92.5257 111.311 92.5842 111.311C92.6619 111.311 95.9077 109.675 99.8338 107.689C107.55 103.776 108.644 103.622 110.335 104.206L108.682 114.461L98.6093 119.295L89.0078 124.162H87.725C87.0058 124.162 86.1507 124.045 85.7813 123.889C84.8291 123.481 83.7989 122.507 83.2935 121.475L82.8465 120.56L82.7493 109.636Z" fill="url(#paint3_linear_35_730)"/>
<path d="M87.838 57.3633C89.8962 57.3828 91.2747 58.219 92.2844 60.0859L82.8481 70.2958C82.7123 70.2958 79.198 72.046 75.0236 74.1658L66.979 78.1935L66.5908 67.303C66.6295 67.3419 71.4706 64.9867 76.7905 62.2834L86.4791 57.3633H87.838Z" fill="url(#paint4_linear_35_730)"/>
<path d="M114.39 0.711867C114.953 0.478468 115.886 0.206219 116.448 0.108945C117.555 -0.104979 119.691 0.0117685 121.051 0.322869C122.371 0.614593 125.302 2.09259 126.39 3.00661C128.486 4.75686 130.117 7.36281 130.525 9.6187C130.855 11.3106 131.049 112.689 130.739 113.953C129.982 117.046 127.457 119.534 124.351 120.255C123.088 120.546 120.565 120.507 119.128 120.177C117.555 119.787 116.099 119.049 111.964 116.502L107.815 113.897L110.274 104.172C110.701 104.327 113.303 105.825 116.06 107.517C118.818 109.209 121.089 110.569 121.128 110.531C121.166 110.492 121.147 88.205 121.089 60.9985L120.992 11.5245L120.546 10.98C120.293 10.6883 119.789 10.2993 119.42 10.1244C119.051 9.94937 118.546 9.81315 118.293 9.83263L114.39 0.711867Z" fill="url(#paint5_linear_35_730)"/>
<path d="M114.347 0.716397C114.914 0.48153 115.85 0.207519 116.417 0.109658C117.53 -0.105637 119.678 0.0117961 121.045 0.324952L120.986 11.5982L120.537 11.0501C120.283 10.7565 119.776 10.3651 119.404 10.189C119.033 10.0128 118.526 9.87581 118.271 9.89538C117.804 9.89538 29.4888 54.6942 29.4692 54.9291C29.4692 54.9879 31.5584 56.3382 34.1163 57.9039C40.0521 61.5443 40.2473 61.6813 40.8722 62.9338L41.0649 63.971V72.2498L31.5975 67.9049L27.751 65.5564C23.0063 62.6793 21.3465 61.1724 20.1164 58.6281C18.7105 55.6924 18.6325 53.0503 19.8821 50.4863C20.7217 48.7837 21.9323 47.6681 24.4511 46.3177C27.9658 44.4388 113.176 1.2057 114.347 0.716397Z" fill="url(#paint6_linear_35_730)"/>
<path d="M31.2473 67.6431L27.3489 65.2755L40.6468 62.6313L41.1614 63.6772V72.0235C41.1614 76.621 41.2009 80.37 41.2603 80.37C41.3197 80.37 56.9528 72.5169 57.1506 72.3787L57.2693 83.527C57.1902 83.527 52.7377 85.7566 47.3751 88.4597C37.8171 93.294 37.5994 93.3928 36.4121 93.3928C34.3738 93.3928 32.8106 92.4847 31.9003 90.7682L31.366 89.7426L31.3067 78.6928L31.2473 67.6431Z" fill="url(#paint7_linear_35_730)"/>
<path d="M106.574 26.4839C108.775 26.5033 110.177 27.3795 111.034 29.3268L101.91 39.3696C101.871 39.2722 66.5159 56.9958 66.3601 57.1906C66.3017 57.2685 67.0295 78.0983 67.1074 78.1762L57.1864 83.4608C57.2059 83.4413 56.9931 68.9319 56.8178 64.9207C56.3503 53.0042 56.3308 53.3546 56.9736 52.05C57.2656 51.4463 57.7914 50.7454 58.1421 50.4923C58.473 50.2197 62.4848 48.1168 67.0417 45.8191C71.5988 43.5019 82.0174 38.2057 90.2161 34.0583L105.114 26.4839H106.574Z" fill="url(#paint8_linear_35_730)"/>
<defs>
<linearGradient id="paint0_linear_35_730" x1="101.834" y1="39.5269" x2="101.828" y2="94.4243" gradientUnits="userSpaceOnUse">
<stop stop-color="#59F471"/>
<stop offset="1" stop-color="#21BA6D"/>
</linearGradient>
<linearGradient id="paint1_linear_35_730" x1="39.5506" y1="147.661" x2="62.6789" y2="110.389" gradientUnits="userSpaceOnUse">
<stop stop-color="#51F46B"/>
<stop offset="0.195767" stop-color="#46EE59"/>
<stop offset="1" stop-color="#22C353"/>
</linearGradient>
<linearGradient id="paint2_linear_35_730" x1="78.5267" y1="82.5936" x2="36.2998" y2="146.336" gradientUnits="userSpaceOnUse">
<stop stop-color="#53F366"/>
<stop offset="0.6" stop-color="#5AFB4A"/>
<stop offset="1" stop-color="#51F46B"/>
</linearGradient>
<linearGradient id="paint3_linear_35_730" x1="87.4888" y1="67.6085" x2="108.203" y2="106.509" gradientUnits="userSpaceOnUse">
<stop stop-color="#58F475"/>
<stop offset="0.445" stop-color="#56EA7E"/>
<stop offset="1" stop-color="#51BF9D"/>
</linearGradient>
<linearGradient id="paint4_linear_35_730" x1="67.8163" y1="73.1245" x2="83.18" y2="65.9674" gradientUnits="userSpaceOnUse">
<stop stop-color="#21BD5A"/>
<stop offset="1" stop-color="#58F475"/>
</linearGradient>
<linearGradient id="paint5_linear_35_730" x1="119.75" y1="2.56212e-05" x2="119.75" y2="120.451" gradientUnits="userSpaceOnUse">
<stop stop-color="#57F474"/>
<stop offset="0.7" stop-color="#51C29B"/>
<stop offset="1" stop-color="#51BF9D"/>
</linearGradient>
<linearGradient id="paint6_linear_35_730" x1="120.192" y1="3.96363" x2="34.4625" y2="64.5436" gradientUnits="userSpaceOnUse">
<stop stop-color="#57F474"/>
<stop offset="1" stop-color="#86D86A"/>
</linearGradient>
<linearGradient id="paint7_linear_35_730" x1="35.0652" y1="64.13" x2="42.333" y2="93.387" gradientUnits="userSpaceOnUse">
<stop stop-color="#86D86A"/>
<stop offset="1" stop-color="#55EC5A"/>
</linearGradient>
<linearGradient id="paint8_linear_35_730" x1="104.666" y1="34.637" x2="62.9448" y2="73.9233" gradientUnits="userSpaceOnUse">
<stop stop-color="#59F471"/>
<stop offset="0.655" stop-color="#57F05D"/>
<stop offset="1" stop-color="#53F366"/>
</linearGradient>
</defs>
</svg>
